# File created by Blade
# Date/Time:  Wed Jan 21 15:15:22 2015
# Frame Rate: 120.000 fps
#------------------------------------------------------
:FULLY-SPECIFIED
:DEGREES
758
root 21.458040 37.614688 -19.306284 178.808730 -58.897559 -114.704960
Spine -32.224439 -10.186295 2.814959
Head -16.641248 29.974880 24.115929
LeftShoulder -10.360272 -25.478772 6.581510
LeftArm -0.315651 13.229865 -49.694127
LeftForeArm 0.413248 0.000000 6.154434
LeftHand -0.458581 -0.000000 -2.303616
LeftHandThumb1 -26.253704 0.000000 33.147579
RightShoulder -22.834231 -22.314004 5.535442
RightArm -8.659754 11.893002 57.630537
RightForeArm -46.965682 -0.000000 9.826924
RightHand -2.128681 -0.000000 25.822288
RightHandThumb1 -24.326973 -0.000000 -32.862282
LeftUpLeg -64.746064 24.889293 -4.528301
LeftLeg -6.726807 -0.000000 0.000000
LeftFoot -13.474343 26.027813 -12.566749
LeftToeBase 23.758461 -0.000000 -0.000000
RightUpLeg 5.259322 8.407872 -11.545310
RightLeg 128.321136 -0.000000 -0.000000
RightFoot 17.431890 -37.645422 -6.812431
RightToeBase 20.703897 -0.000000 -0.000000
759
root 21.486459 37.634117 -19.310055 178.912381 -58.664672 -114.627402
Spine -32.185402 -10.205961 2.687296
Head -16.705131 30.054710 24.384453
LeftShoulder -10.341030 -25.474158 6.643635
LeftArm -0.257719 12.979019 -49.595301
LeftForeArm 0.678421 -0.000000 6.110313
LeftHand -0.421393 -0.000000 -2.469834
LeftHandThumb1 -26.253704 0.000000 33.147579
RightShoulder -22.831392 -22.235886 5.632059
RightArm -8.739849 11.833308 57.570547
RightForeArm -46.881999 -0.000000 9.804448
RightHand -2.113254 -0.000000 25.807729
RightHandThumb1 -24.326973 -0.000000 -32.862282
LeftUpLeg -65.146319 25.227988 -4.794020
LeftLeg -6.619178 -0.000000 0.000000
LeftFoot -13.593156 25.736948 -12.744248
LeftToeBase 24.363049 -0.000000 -0.000000
RightUpLeg 5.237150 8.331646 -11.656250
RightLeg 128.339358 -0.000000 -0.000000
RightFoot 17.663879 -37.623758 -7.012156
RightToeBase 20.822369 -0.000000 -0.000000
760
root 21.516966 37.659747 -19.312820 179.073361 -58.414923 -114.486866
Spine -32.292927 -10.184056 2.617574
Head -16.721606 30.183079 24.606088
LeftShoulder -10.294006 -25.424617 6.700861
LeftArm -0.254700 13.159568 -49.504554
LeftForeArm 0.511236 -0.000000 6.161231
LeftHand -0.434381 -0.000000 -2.383830
LeftHandThumb1 -26.253704 0.000000 33.147579
RightShoulder -22.919782 -22.236451 5.724995
RightArm -8.727591 11.962543 57.527190
RightForeArm -46.954698 -0.000000 9.776633
RightHand -2.171320 -0.000000 25.815807
RightHandThumb1 -24.326973 -0.000000 -32.862282
LeftUpLeg -65.738314 25.624535 -5.223961
LeftLeg -6.518044 -0.000000 0.000000
LeftFoot -13.652116 25.260979 -12.962087
LeftToeBase 24.934219 -0.000000 -0.000000
RightUpLeg 5.083101 8.259538 -11.754003
RightLeg 128.405031 -0.000000 -0.000000
RightFoot 17.734101 -37.557390 -7.038700
RightToeBase 20.838629 -0.000000 -0.000000
761
root 21.542318 37.680356 -19.319871 179.203442 -58.184090 -114.413757
Spine -32.303303 -10.203355 2.473554
Head -16.738404 30.269623 24.923746
LeftShoulder -10.282520 -25.335157 6.757108
LeftArm -0.136430 13.187910 -49.370288
LeftForeArm 0.381351 -0.000000 6.137709
LeftHand -0.411255 -0.000000 -2.476975
LeftHandThumb1 -26.253704 0.000000 33.147579
RightShoulder -23.004191 -22.226762 5.880593
RightArm -8.719130 11.981436 57.453508
RightForeArm -47.021014 -0.000000 9.689462
RightHand -2.035046 -0.000000 25.686144
RightHandThumb1 -24.326973 -0.000000 -32.862282
LeftUpLeg -66.143069 25.976815 -5.535236
LeftLeg -6.464880 -0.000000 0.000000
LeftFoot -13.785378 24.856724 -13.211082
LeftToeBase 25.728283 -0.000000 -0.000000
RightUpLeg 5.069188 8.130104 -11.880318
RightLeg 128.386007 -0.000000 -0.000000
RightFoot 18.019219 -37.111740 -7.923944
RightToeBase 22.442527 -0.000000 -0.000000
